<svg width="28" height="23" viewBox="0 0 28 23" fill="none" xmlns="http://www.w3.org/2000/svg">
<path d="M13.763 8.258C12.9464 8.258 12.1481 8.50016 11.4691 8.95386C10.79 9.40756 10.2608 10.0524 9.9483 10.8069C9.63579 11.5614 9.55402 12.3916 9.71334 13.1925C9.87266 13.9935 10.2659 14.7292 10.8434 15.3066C11.4208 15.8841 12.1565 16.2773 12.9575 16.4367C13.7584 16.596 14.5886 16.5142 15.3431 16.2017C16.0976 15.8892 16.7424 15.36 17.1961 14.681C17.6498 14.0019 17.892 13.2036 17.892 12.387C17.892 11.2919 17.457 10.2417 16.6826 9.46736C15.9083 8.69302 14.8581 8.258 13.763 8.258ZM24.773 4.129H21.473C21.2354 4.118 21.0061 4.03812 20.8131 3.8991C20.6201 3.76007 20.4717 3.56789 20.386 3.346L19.532 0.784C19.4461 0.56154 19.2973 0.368915 19.1038 0.22968C18.9102 0.0904447 18.6802 0.0106321 18.442 0H9.084C8.84691 0.0115644 8.61827 0.0917071 8.42585 0.2307C8.23343 0.369692 8.08549 0.561556 8 0.783L7.146 3.345C7.0602 3.56682 6.91177 3.75893 6.71879 3.89794C6.5258 4.03695 6.29658 4.11688 6.059 4.128H2.759C2.02847 4.12853 1.32792 4.41855 0.810793 4.93455C0.293667 5.45055 0.00211653 6.15047 0 6.881L0 19.268C0.00211066 19.9975 0.292836 20.6965 0.808667 21.2123C1.3245 21.7282 2.02351 22.0189 2.753 22.021H24.773C25.5025 22.0189 26.2015 21.7282 26.7173 21.2123C27.2332 20.6965 27.5239 19.9975 27.526 19.268V6.881C27.5236 6.15168 27.2328 5.45293 26.717 4.93731C26.2012 4.4217 25.5023 4.13111 24.773 4.129ZM13.763 19.268C12.4021 19.268 11.0717 18.8644 9.94012 18.1083C8.80855 17.3522 7.92659 16.2776 7.40579 15.0202C6.88498 13.7629 6.74871 12.3794 7.01422 11.0446C7.27972 9.7098 7.93507 8.48372 8.8974 7.5214C9.85972 6.55907 11.0858 5.90372 12.4206 5.63822C13.7554 5.37271 15.1389 5.50898 16.3962 6.02979C17.6536 6.55059 18.7282 7.43255 19.4843 8.56412C20.2404 9.6957 20.644 11.0261 20.644 12.387C20.644 13.2906 20.466 14.1854 20.1202 15.0202C19.7744 15.8551 19.2676 16.6136 18.6286 17.2526C17.9896 17.8916 17.2311 18.3984 16.3962 18.7442C15.5614 19.09 14.6666 19.268 13.763 19.268ZM23.81 8.806C23.6195 8.806 23.4334 8.74952 23.275 8.64371C23.1166 8.53789 22.9932 8.38749 22.9203 8.21152C22.8474 8.03556 22.8283 7.84193 22.8655 7.65513C22.9027 7.46832 22.9944 7.29673 23.1291 7.16206C23.2637 7.02738 23.4353 6.93566 23.6221 6.8985C23.8089 6.86135 24.0026 6.88042 24.1785 6.9533C24.3545 7.02619 24.5049 7.14962 24.6107 7.30799C24.7165 7.46635 24.773 7.65254 24.773 7.843C24.773 8.0984 24.6715 8.34335 24.4909 8.52394C24.3103 8.70454 24.0654 8.806 23.81 8.806Z" fill="white"/>
</svg>
